{
  "accessors": [
    {
      "bufferView": 2,
      "componentType": 5126,
      "count": 65533,
      "max": [
        13.979836463928223,
        11.802533149719238,
        12.044322967529297
      ],
      "min": [
        -14.04666805267334,
        -12.075544357299805,
        -0.03638400137424469
      ],
      "type": "VEC3"
    },
    {
      "bufferView": 2,
      "byteOffset": 786396,
      "componentType": 5126,
      "count": 65533,
      "max": [
        1.0,
        1.0,
        1.0
      ],
      "min": [
        -1.0,
        -1.0,
        -1.0
      ],
      "type": "VEC3"
    },
    {
      "bufferView": 1,
      "componentType": 5126,
      "count": 65533,
      "max": [
        1.0000009536743164,
        1.0000009536743164
      ],
      "min": [
        -9.999999974752427e-07,
        -9.999999974752427e-07
      ],
      "type": "VEC2"
    },
    {
      "bufferView": 0,
      "componentType": 5125,
      "count": 73110,
      "type": "SCALAR"
    },
    {
      "bufferView": 2,
      "byteOffset": 1572792,
      "componentType": 5126,
      "count": 15401,
      "max": [
        13.979836463928223,
        11.802533149719238,
        12.044322967529297
      ],
      "min": [
        -14.04666805267334,
        -12.075544357299805,
        -0.006306000053882599
      ],
      "type": "VEC3"
    },
    {
      "bufferView": 2,
      "byteOffset": 1757604,
      "componentType": 5126,
      "count": 15401,
      "max": [
        1.0,
        1.0,
        1.0
      ],
      "min": [
        -1.0,
        -1.0,
        -1.0
      ],
      "type": "VEC3"
    },
    {
      "bufferView": 1,
      "byteOffset": 524264,
      "componentType": 5126,
      "count": 15401,
      "max": [
        1.0000009536743164,
        1.0000009536743164
      ],
      "min": [
        -9.999999974752427e-07,
        0.0
      ],
      "type": "VEC2"
    },
    {
      "bufferView": 0,
      "byteOffset": 292440,
      "componentType": 5125,
      "count": 15720,
      "type": "SCALAR"
    },
    {
      "bufferView": 2,
      "byteOffset": 1942416,
      "componentType": 5126,
      "count": 65533,
      "max": [
        8.0,
        -9.949999809265137,
        0.9943689703941345
      ],
      "min": [
        -0.0025029999669641256,
        -10.050000190734863,
        -0.0047439998015761375
      ],
      "type": "VEC3"
    },
    {
      "bufferView": 2,
      "byteOffset": 2728812,
      "componentType": 5126,
      "count": 65533,
      "max": [
        1.0,
        1.0,
        1.0
      ],
      "min": [
        -1.0,
        -1.0,
        -1.0
      ],
      "type": "VEC3"
    },
    {
      "bufferView": 1,
      "byteOffset": 647472,
      "componentType": 5126,
      "count": 65533,
      "max": [
        1.0191359519958496,
        1.0023109912872314
      ],
      "min": [
        -0.01913600042462349,
        0.0
      ],
      "type": "VEC2"
    },
    {
      "bufferView": 0,
      "byteOffset": 355320,
      "componentType": 5125,
      "count": 244629,
      "type": "SCALAR"
    },
    {
      "bufferView": 2,
      "byteOffset": 3515208,
      "componentType": 5126,
      "count": 65532,
      "max": [
        8.724031448364258,
        -6.3391900062561035,
        10.295738220214844
      ],
      "min": [
        -8.0,
        -10.050000190734863,
        -0.0047439998015761375
      ],
      "type": "VEC3"
    },
    {
      "bufferView": 2,
      "byteOffset": 4301592,
      "componentType": 5126,
      "count": 65532,
      "max": [
        1.0,
        1.0,
        1.0
      ],
      "min": [
        -1.0,
        -1.0,
        -1.0
      ],
      "type": "VEC3"
    },
    {
      "bufferView": 1,
      "byteOffset": 1171736,
      "componentType": 5126,
      "count": 65532,
      "max": [
        1.0191359519958496,
        1.0023109912872314
      ],
      "min": [
        -1.4891200065612793,
        -9.999999974752427e-07
      ],
      "type": "VEC2"
    },
    {
      "bufferView": 0,
      "byteOffset": 1333836,
      "componentType": 5125,
      "count": 257196,
      "type": "SCALAR"
    },
    {
      "bufferView": 2,
      "byteOffset": 5087976,
      "componentType": 5126,
      "count": 19925,
      "max": [
        8.722116470336914,
        -6.443108081817627,
        10.243395805358887
      ],
      "min": [
        -8.520350456237793,
        -10.050000190734863,
        -0.0047439998015761375
      ],
      "type": "VEC3"
    },
    {
      "bufferView": 2,
      "byteOffset": 5327076,
      "componentType": 5126,
      "count": 19925,
      "max": [
        1.0,
        1.0,
        1.0
      ],
      "min": [
        -1.0,
        -1.0,
        -1.0
      ],
      "type": "VEC3"
    },
    {
      "bufferView": 1,
      "byteOffset": 1695992,
      "componentType": 5126,
      "count": 19925,
      "max": [
        1.0191359519958496,
        1.0023109912872314
      ],
      "min": [
        -0.01913600042462349,
        -9.999999974752427e-07
      ],
      "type": "VEC2"
    },
    {
      "bufferView": 0,
      "byteOffset": 2362620,
      "componentType": 5125,
      "count": 71550,
      "type": "SCALAR"
    }
  ],
  "asset": {
    "extras": {
      "author": "Sameer.Uddin (https://sketchfab.com/Sameer.Uddin)",
      "license": "CC-BY-4.0 (http://creativecommons.org/licenses/by/4.0/)",
      "source": "https://sketchfab.com/3d-models/music-concert-stage-low-poly-89629aceff334b34a76c30d42f8327bd",
      "title": "Music_concert_stage_Low_poly"
    },
    "generator": "Sketchfab-13.46.0",
    "version": "2.0"
  },
  "bufferViews": [
    {
      "buffer": 0,
      "byteLength": 2648820,
      "name": "floatBufferViews",
      "target": 34963
    },
    {
      "buffer": 0,
      "byteLength": 1855392,
      "byteOffset": 2648820,
      "byteStride": 8,
      "name": "floatBufferViews",
      "target": 34962
    },
    {
      "buffer": 0,
      "byteLength": 5566176,
      "byteOffset": 4504212,
      "byteStride": 12,
      "name": "floatBufferViews",
      "target": 34962
    }
  ],
  "buffers": [
    {
      "byteLength": 10070388,
      "uri": "scene.bin"
    }
  ],
  "materials": [
    {
      "doubleSided": true,
      "name": "None",
      "pbrMetallicRoughness": {
        "metallicFactor": 0.0,
        "roughnessFactor": 0.6
      }
    }
  ],
  "meshes": [
    {
      "name": "Object_0",
      "primitives": [
        {
          "attributes": {
            "NORMAL": 1,
            "POSITION": 0,
            "TEXCOORD_0": 2
          },
          "indices": 3,
          "material": 0,
          "mode": 4
        }
      ]
    },
    {
      "name": "Object_1",
      "primitives": [
        {
          "attributes": {
            "NORMAL": 5,
            "POSITION": 4,
            "TEXCOORD_0": 6
          },
          "indices": 7,
          "material": 0,
          "mode": 4
        }
      ]
    },
    {
      "name": "Object_2",
      "primitives": [
        {
          "attributes": {
            "NORMAL": 9,
            "POSITION": 8,
            "TEXCOORD_0": 10
          },
          "indices": 11,
          "material": 0,
          "mode": 4
        }
      ]
    },
    {
      "name": "Object_3",
      "primitives": [
        {
          "attributes": {
            "NORMAL": 13,
            "POSITION": 12,
            "TEXCOORD_0": 14
          },
          "indices": 15,
          "material": 0,
          "mode": 4
        }
      ]
    },
    {
      "name": "Object_4",
      "primitives": [
        {
          "attributes": {
            "NORMAL": 17,
            "POSITION": 16,
            "TEXCOORD_0": 18
          },
          "indices": 19,
          "material": 0,
          "mode": 4
        }
      ]
    }
  ],
  "nodes": [
    {
      "children": [
        1
      ],
      "matrix": [
        1.0,
        0.0,
        0.0,
        0.0,
        0.0,
        2.220446049250313e-16,
        -1.0,
        0.0,
        0.0,
        1.0,
        2.220446049250313e-16,
        0.0,
        0.0,
        0.0,
        0.0,
        1.0
      ],
      "name": "Sketchfab_model"
    },
    {
      "children": [
        2,
        3,
        4,
        5,
        6
      ],
      "name": "Concert _stage_zook.obj.cleaner.materialmerger.gles"
    },
    {
      "mesh": 0,
      "name": "Object_2"
    },
    {
      "mesh": 1,
      "name": "Object_3"
    },
    {
      "mesh": 2,
      "name": "Object_4"
    },
    {
      "mesh": 3,
      "name": "Object_5"
    },
    {
      "mesh": 4,
      "name": "Object_6"
    }
  ],
  "scene": 0,
  "scenes": [
    {
      "name": "Sketchfab_Scene",
      "nodes": [
        0
      ]
    }
  ]
}
