{
  "accessors": [
    {
      "bufferView": 2,
      "componentType": 5126,
      "count": 2554,
      "max": [
        -3.535799980163574,
        5.9405999183654785,
        20.749799728393555
      ],
      "min": [
        -9.30679988861084,
        -0.07209998369216919,
        15.880789756774902
      ],
      "type": "VEC3"
    },
    {
      "bufferView": 2,
      "byteOffset": 30648,
      "componentType": 5126,
      "count": 2554,
      "max": [
        1.0,
        1.0,
        1.0
      ],
      "min": [
        -1.0,
        -1.0,
        -1.0
      ],
      "type": "VEC3"
    },
    {
      "bufferView": 1,
      "componentType": 5126,
      "count": 2554,
      "max": [
        0.9577726125717163,
        0.9985352158546448
      ],
      "min": [
        -2.7948989868164063,
        -2.1552000045776367
      ],
      "type": "VEC2"
    },
    {
      "bufferView": 0,
      "componentType": 5125,
      "count": 5925,
      "type": "SCALAR"
    },
    {
      "bufferView": 2,
      "byteOffset": 61296,
      "componentType": 5126,
      "count": 23214,
      "max": [
        9.718854904174805,
        24.198410034179688,
        24.943700790405273
      ],
      "min": [
        -9.624338150024414,
        -22.060619354248047,
        3.821742057800293
      ],
      "type": "VEC3"
    },
    {
      "bufferView": 2,
      "byteOffset": 339864,
      "componentType": 5126,
      "count": 23214,
      "max": [
        1.0,
        1.0,
        1.0
      ],
      "min": [
        -1.0,
        -1.0,
        -1.0
      ],
      "type": "VEC3"
    },
    {
      "bufferView": 1,
      "byteOffset": 20432,
      "componentType": 5126,
      "count": 23214,
      "max": [
        1.0166829824447632,
        0.9997000098228455
      ],
      "min": [
        -3.1251471042633057,
        -1.1786830425262451
      ],
      "type": "VEC2"
    },
    {
      "bufferView": 0,
      "byteOffset": 23700,
      "componentType": 5125,
      "count": 32136,
      "type": "SCALAR"
    },
    {
      "bufferView": 2,
      "byteOffset": 618432,
      "componentType": 5126,
      "count": 1266,
      "max": [
        -9.083488464355469,
        -10.174030303955078,
        10.88772964477539
      ],
      "min": [
        -14.868680000305176,
        -20.958080291748047,
        0.1045290008187294
      ],
      "type": "VEC3"
    },
    {
      "bufferView": 2,
      "byteOffset": 633624,
      "componentType": 5126,
      "count": 1266,
      "max": [
        0.9988614916801453,
        0.9995648860931396,
        0.9995570182800293
      ],
      "min": [
        -1.0,
        -0.9995647072792053,
        -0.9995570778846741
      ],
      "type": "VEC3"
    },
    {
      "bufferView": 1,
      "byteOffset": 206144,
      "componentType": 5126,
      "count": 1266,
      "max": [
        0.9993321895599365,
        0.3711310923099518
      ],
      "min": [
        0.7260810136795044,
        -0.01645885966718197
      ],
      "type": "VEC2"
    },
    {
      "bufferView": 0,
      "byteOffset": 152244,
      "componentType": 5125,
      "count": 2892,
      "type": "SCALAR"
    },
    {
      "bufferView": 2,
      "byteOffset": 648816,
      "componentType": 5126,
      "count": 1258,
      "max": [
        -9.15872859954834,
        21.963970184326172,
        10.9022798538208
      ],
      "min": [
        -14.946820259094238,
        11.183289527893066,
        0.12247110158205032
      ],
      "type": "VEC3"
    },
    {
      "bufferView": 2,
      "byteOffset": 663912,
      "componentType": 5126,
      "count": 1258,
      "max": [
        0.9988890886306763,
        0.9999775886535645,
        0.9999786019325256
      ],
      "min": [
        -0.9999997019767761,
        -0.9999775886535645,
        -0.9999786019325256
      ],
      "type": "VEC3"
    },
    {
      "bufferView": 1,
      "byteOffset": 216272,
      "componentType": 5126,
      "count": 1258,
      "max": [
        0.9993321895599365,
        0.3711310923099518
      ],
      "min": [
        0.7258362770080566,
        -0.01645885966718197
      ],
      "type": "VEC2"
    },
    {
      "bufferView": 0,
      "byteOffset": 163812,
      "componentType": 5125,
      "count": 2892,
      "type": "SCALAR"
    },
    {
      "bufferView": 2,
      "byteOffset": 679008,
      "componentType": 5126,
      "count": 1258,
      "max": [
        15.047989845275879,
        21.97007942199707,
        10.913220405578613
      ],
      "min": [
        9.24154281616211,
        11.185319900512695,
        0.12660959362983704
      ],
      "type": "VEC3"
    },
    {
      "bufferView": 2,
      "byteOffset": 694104,
      "componentType": 5126,
      "count": 1258,
      "max": [
        0.9999905824661255,
        0.9999768137931824,
        0.9999735951423645
      ],
      "min": [
        -0.9990550875663757,
        -0.9999768137931824,
        -0.9999728798866272
      ],
      "type": "VEC3"
    },
    {
      "bufferView": 1,
      "byteOffset": 226336,
      "componentType": 5126,
      "count": 1258,
      "max": [
        0.9993321895599365,
        0.3711310923099518
      ],
      "min": [
        0.7257596850395203,
        -0.01645885966718197
      ],
      "type": "VEC2"
    },
    {
      "bufferView": 0,
      "byteOffset": 175380,
      "componentType": 5125,
      "count": 2892,
      "type": "SCALAR"
    },
    {
      "bufferView": 2,
      "byteOffset": 709200,
      "componentType": 5126,
      "count": 1258,
      "max": [
        15.047989845275879,
        21.97007942199707,
        10.913220405578613
      ],
      "min": [
        9.24154281616211,
        11.185319900512695,
        0.12660959362983704
      ],
      "type": "VEC3"
    },
    {
      "bufferView": 2,
      "byteOffset": 724296,
      "componentType": 5126,
      "count": 1258,
      "max": [
        0.9999905824661255,
        0.9999768137931824,
        0.9999735951423645
      ],
      "min": [
        -0.9990550875663757,
        -0.9999768137931824,
        -0.9999728798866272
      ],
      "type": "VEC3"
    },
    {
      "bufferView": 1,
      "byteOffset": 236400,
      "componentType": 5126,
      "count": 1258,
      "max": [
        0.9993321895599365,
        0.3711310923099518
      ],
      "min": [
        0.7257596850395203,
        -0.01645885966718197
      ],
      "type": "VEC2"
    },
    {
      "bufferView": 0,
      "byteOffset": 186948,
      "componentType": 5125,
      "count": 2892,
      "type": "SCALAR"
    },
    {
      "bufferView": 2,
      "byteOffset": 739392,
      "componentType": 5126,
      "count": 1258,
      "max": [
        -9.15872859954834,
        21.963970184326172,
        10.9022798538208
      ],
      "min": [
        -14.946820259094238,
        11.183289527893066,
        0.12247110158205032
      ],
      "type": "VEC3"
    },
    {
      "bufferView": 2,
      "byteOffset": 754488,
      "componentType": 5126,
      "count": 1258,
      "max": [
        0.9988890886306763,
        0.9999775886535645,
        0.9999786019325256
      ],
      "min": [
        -0.9999997019767761,
        -0.9999775886535645,
        -0.9999786019325256
      ],
      "type": "VEC3"
    },
    {
      "bufferView": 1,
      "byteOffset": 246464,
      "componentType": 5126,
      "count": 1258,
      "max": [
        0.9993321895599365,
        0.3711310923099518
      ],
      "min": [
        0.7258362770080566,
        -0.01645885966718197
      ],
      "type": "VEC2"
    },
    {
      "bufferView": 0,
      "byteOffset": 198516,
      "componentType": 5125,
      "count": 2892,
      "type": "SCALAR"
    },
    {
      "bufferView": 2,
      "byteOffset": 769584,
      "componentType": 5126,
      "count": 1258,
      "max": [
        15.047989845275879,
        21.97007942199707,
        10.913220405578613
      ],
      "min": [
        9.24154281616211,
        11.185319900512695,
        0.12660959362983704
      ],
      "type": "VEC3"
    },
    {
      "bufferView": 2,
      "byteOffset": 784680,
      "componentType": 5126,
      "count": 1258,
      "max": [
        0.9999905824661255,
        0.9999768137931824,
        0.9999735951423645
      ],
      "min": [
        -0.9990550875663757,
        -0.9999768137931824,
        -0.9999728798866272
      ],
      "type": "VEC3"
    },
    {
      "bufferView": 1,
      "byteOffset": 256528,
      "componentType": 5126,
      "count": 1258,
      "max": [
        0.9993321895599365,
        0.3711310923099518
      ],
      "min": [
        0.7257596850395203,
        -0.01645885966718197
      ],
      "type": "VEC2"
    },
    {
      "bufferView": 0,
      "byteOffset": 210084,
      "componentType": 5125,
      "count": 2892,
      "type": "SCALAR"
    },
    {
      "bufferView": 2,
      "byteOffset": 799776,
      "componentType": 5126,
      "count": 372,
      "max": [
        -1.205180048942566,
        -2.4203860759735107,
        4.728361129760742
      ],
      "min": [
        -6.669978141784668,
        -7.349783897399902,
        4.092574119567871
      ],
      "type": "VEC3"
    },
    {
      "bufferView": 2,
      "byteOffset": 804240,
      "componentType": 5126,
      "count": 372,
      "max": [
        0.9999998807907104,
        1.0,
        0.9999963045120239
      ],
      "min": [
        -0.9999998211860657,
        -1.0,
        -0.9999963045120239
      ],
      "type": "VEC3"
    },
    {
      "bufferView": 1,
      "byteOffset": 266592,
      "componentType": 5126,
      "count": 372,
      "max": [
        0.7117573022842407,
        0.31493160128593445
      ],
      "min": [
        0.012409210205078125,
        0.0030657050665467978
      ],
      "type": "VEC2"
    },
    {
      "bufferView": 0,
      "byteOffset": 221652,
      "componentType": 5125,
      "count": 372,
      "type": "SCALAR"
    },
    {
      "bufferView": 2,
      "byteOffset": 808704,
      "componentType": 5126,
      "count": 368,
      "max": [
        3.4909000396728516,
        20.37540054321289,
        13.099510192871094
      ],
      "min": [
        -3.3538899421691895,
        15.190199851989746,
        5.382198810577393
      ],
      "type": "VEC3"
    },
    {
      "bufferView": 2,
      "byteOffset": 813120,
      "componentType": 5126,
      "count": 368,
      "max": [
        0.9999998807907104,
        0.9999974966049194,
        0.9998956918716431
      ],
      "min": [
        -0.9999998807907104,
        -0.9998990297317505,
        -0.999894380569458
      ],
      "type": "VEC3"
    },
    {
      "bufferView": 1,
      "byteOffset": 269568,
      "componentType": 5126,
      "count": 368,
      "max": [
        0.7072172164916992,
        0.9966989755630493
      ],
      "min": [
        0.019299980252981186,
        0.0011489390162751079
      ],
      "type": "VEC2"
    },
    {
      "bufferView": 0,
      "byteOffset": 223140,
      "componentType": 5125,
      "count": 450,
      "type": "SCALAR"
    }
  ],
  "asset": {
    "extras": {
      "author": "kth07 (https://sketchfab.com/kth07)",
      "license": "CC-BY-4.0 (http://creativecommons.org/licenses/by/4.0/)",
      "source": "https://sketchfab.com/3d-models/baserunner-4a5c227b13c74f0188176d697a8d02fd",
      "title": "baserunner"
    },
    "generator": "Sketchfab-15.55.0",
    "version": "2.0"
  },
  "bufferViews": [
    {
      "buffer": 0,
      "byteLength": 224940,
      "name": "floatBufferViews",
      "target": 34963
    },
    {
      "buffer": 0,
      "byteLength": 272512,
      "byteOffset": 224940,
      "byteStride": 8,
      "name": "floatBufferViews",
      "target": 34962
    },
    {
      "buffer": 0,
      "byteLength": 817536,
      "byteOffset": 497452,
      "byteStride": 12,
      "name": "floatBufferViews",
      "target": 34962
    }
  ],
  "buffers": [
    {
      "byteLength": 1314988,
      "uri": "cene.bin"
    }
  ],
  "extensionsRequired": [
    "KHR_materials_pbrSpecularGlossiness"
  ],
  "extensionsUsed": [
    "KHR_materials_pbrSpecularGlossiness"
  ],
  "images": [
    {
      "uri": "textures/MAT_Unit_C_Baserunner_Rachel.004_specularGlossiness.png"
    }
  ],
  "materials": [
    {
      "doubleSided": true,
      "extensions": {
        "KHR_materials_pbrSpecularGlossiness": {
          "diffuseFactor": [
            0.0,
            0.0,
            0.0,
            1.0
          ],
          "glossinessFactor": 0.4,
          "specularFactor": [
            1.0,
            1.0,
            1.0
          ],
          "specularGlossinessTexture": {
            "index": 0
          }
        }
      },
      "name": "MAT_Unit_C_Baserunner_Rachel.004"
    },
    {
      "doubleSided": true,
      "extensions": {
        "KHR_materials_pbrSpecularGlossiness": {
          "diffuseFactor": [
            0.0,
            0.0,
            0.0,
            1.0
          ],
          "glossinessFactor": 0.4,
          "specularFactor": [
            1.0,
            1.0,
            1.0
          ],
          "specularGlossinessTexture": {
            "index": 0
          }
        }
      },
      "name": "MAT_Unit_C_Baserunner_Rachel.002"
    },
    {
      "doubleSided": true,
      "extensions": {
        "KHR_materials_pbrSpecularGlossiness": {
          "diffuseFactor": [
            0.0,
            0.0,
            0.0,
            1.0
          ],
          "glossinessFactor": 0.4,
          "specularFactor": [
            1.0,
            1.0,
            1.0
          ],
          "specularGlossinessTexture": {
            "index": 0
          }
        }
      },
      "name": "MAT_Unit_C_Baserunner_Rachel"
    }
  ],
  "meshes": [
    {
      "name": "MAT_Unit_C_Baserunner_Rachel-material",
      "primitives": [
        {
          "attributes": {
            "NORMAL": 1,
            "POSITION": 0,
            "TEXCOORD_0": 2
          },
          "indices": 3,
          "material": 2,
          "mode": 4
        }
      ]
    },
    {
      "name": "MAT_Unit_C_Baserunner_Rachel_002-material",
      "primitives": [
        {
          "attributes": {
            "NORMAL": 5,
            "POSITION": 4,
            "TEXCOORD_0": 6
          },
          "indices": 7,
          "material": 1,
          "mode": 4
        }
      ]
    },
    {
      "name": "MAT_Unit_C_Baserunner_Rachel_002-material",
      "primitives": [
        {
          "attributes": {
            "NORMAL": 9,
            "POSITION": 8,
            "TEXCOORD_0": 10
          },
          "indices": 11,
          "material": 1,
          "mode": 4
        }
      ]
    },
    {
      "name": "MAT_Unit_C_Baserunner_Rachel_002-material",
      "primitives": [
        {
          "attributes": {
            "NORMAL": 13,
            "POSITION": 12,
            "TEXCOORD_0": 14
          },
          "indices": 15,
          "material": 1,
          "mode": 4
        }
      ]
    },
    {
      "name": "MAT_Unit_C_Baserunner_Rachel_002-material",
      "primitives": [
        {
          "attributes": {
            "NORMAL": 17,
            "POSITION": 16,
            "TEXCOORD_0": 18
          },
          "indices": 19,
          "material": 1,
          "mode": 4
        }
      ]
    },
    {
      "name": "MAT_Unit_C_Baserunner_Rachel_002-material",
      "primitives": [
        {
          "attributes": {
            "NORMAL": 21,
            "POSITION": 20,
            "TEXCOORD_0": 22
          },
          "indices": 23,
          "material": 1,
          "mode": 4
        }
      ]
    },
    {
      "name": "MAT_Unit_C_Baserunner_Rachel_002-material",
      "primitives": [
        {
          "attributes": {
            "NORMAL": 25,
            "POSITION": 24,
            "TEXCOORD_0": 26
          },
          "indices": 27,
          "material": 1,
          "mode": 4
        }
      ]
    },
    {
      "name": "MAT_Unit_C_Baserunner_Rachel_002-material",
      "primitives": [
        {
          "attributes": {
            "NORMAL": 29,
            "POSITION": 28,
            "TEXCOORD_0": 30
          },
          "indices": 31,
          "material": 1,
          "mode": 4
        }
      ]
    },
    {
      "name": "MAT_Unit_C_Baserunner_Rachel_002-material",
      "primitives": [
        {
          "attributes": {
            "NORMAL": 33,
            "POSITION": 32,
            "TEXCOORD_0": 34
          },
          "indices": 35,
          "material": 1,
          "mode": 4
        }
      ]
    },
    {
      "name": "MAT_Unit_C_Baserunner_Rachel_004-material",
      "primitives": [
        {
          "attributes": {
            "NORMAL": 37,
            "POSITION": 36,
            "TEXCOORD_0": 38
          },
          "indices": 39,
          "material": 0,
          "mode": 4
        }
      ]
    }
  ],
  "nodes": [
    {
      "children": [
        1
      ],
      "matrix": [
        1.0,
        0.0,
        0.0,
        0.0,
        0.0,
        2.220446049250313e-16,
        -1.0,
        0.0,
        0.0,
        1.0,
        2.220446049250313e-16,
        0.0,
        0.0,
        0.0,
        0.0,
        1.0
      ],
      "name": "Sketchfab_model"
    },
    {
      "children": [
        2,
        5,
        22
      ],
      "name": "Collada visual scene group"
    },
    {
      "children": [
        3
      ],
      "matrix": [
        0.01,
        0.0,
        0.0,
        0.0,
        0.0,
        -1.62921e-09,
        0.01,
        0.0,
        0.0,
        -0.01,
        -1.62921e-09,
        0.0,
        0.0,
        0.0,
        0.0,
        1.0
      ],
      "name": "GEO_Baserunner_Rachel_LOD0"
    },
    {
      "children": [
        4
      ],
      "matrix": [
        119.8857,
        0.0,
        0.0,
        0.0,
        0.0,
        -1.95319e-05,
        -119.8857,
        0.0,
        0.0,
        119.8857,
        -1.95319e-05,
        0.0,
        -20.22322,
        70.78129,
        40.44644,
        1.0
      ],
      "name": "GEO_Baserunner_Rachel_LOD0.002"
    },
    {
      "mesh": 0,
      "name": "MAT_Unit_C_Baserunner_Rachel-material"
    },
    {
      "children": [
        6,
        8,
        10,
        12,
        14,
        16,
        18,
        20
      ],
      "matrix": [
        1.229637,
        0.0,
        0.0,
        0.0,
        0.0,
        -3.46917e-07,
        1.229637,
        0.0,
        0.0,
        -1.229637,
        -3.46917e-07,
        0.0,
        -0.1016235,
        -12.25743,
        -4.52478,
        1.0
      ],
      "name": "GEO_Baserunner_Rachel_LOD0"
    },
    {
      "children": [
        7
      ],
      "matrix": [
        1.0,
        0.0,
        0.0,
        0.0,
        0.0,
        -2.8213e-07,
        -1.0,
        0.0,
        0.0,
        1.0,
        -2.8213e-07,
        0.0,
        0.04218174,
        3.899843,
        -9.393167,
        1.0
      ],
      "name": "GEO_Baserunner_Rachel_LOD0.003"
    },
    {
      "mesh": 1,
      "name": "MAT_Unit_C_Baserunner_Rachel_002-material"
    },
    {
      "children": [
        9
      ],
      "matrix": [
        1.0,
        0.0,
        0.0,
        0.0,
        0.0,
        -2.8213e-07,
        -1.0,
        0.0,
        0.0,
        1.0,
        -2.8213e-07,
        0.0,
        24.19664,
        3.657752,
        -9.400363,
        1.0
      ],
      "name": "GEO_Baserunner_Rachel_LOD0.005"
    },
    {
      "mesh": 2,
      "name": "MAT_Unit_C_Baserunner_Rachel_002-material"
    },
    {
      "children": [
        11
      ],
      "matrix": [
        1.0,
        0.0,
        0.0,
        0.0,
        0.0,
        -2.8213e-07,
        -1.0,
        0.0,
        0.0,
        1.0,
        -2.8213e-07,
        0.0,
        24.35493,
        3.609455,
        -9.874022,
        1.0
      ],
      "name": "GEO_Baserunner_Rachel_LOD0.006"
    },
    {
      "mesh": 3,
      "name": "MAT_Unit_C_Baserunner_Rachel_002-material"
    },
    {
      "children": [
        13
      ],
      "matrix": [
        1.0,
        0.0,
        0.0,
        0.0,
        0.0,
        -2.8213e-07,
        -1.0,
        0.0,
        0.0,
        1.0,
        -2.8213e-07,
        0.0,
        -24.1466,
        3.582268,
        -9.880263,
        1.0
      ],
      "name": "GEO_Baserunner_Rachel_LOD0.004"
    },
    {
      "mesh": 4,
      "name": "MAT_Unit_C_Baserunner_Rachel_002-material"
    },
    {
      "children": [
        15
      ],
      "matrix": [
        1.0,
        0.0,
        0.0,
        0.0,
        0.0,
        -2.8213e-07,
        -1.0,
        0.0,
        0.0,
        1.0,
        -2.8213e-07,
        0.0,
        -24.1653,
        3.59804,
        1.768593,
        1.0
      ],
      "name": "GEO_Baserunner_Rachel_LOD0.007"
    },
    {
      "mesh": 5,
      "name": "MAT_Unit_C_Baserunner_Rachel_002-material"
    },
    {
      "children": [
        17
      ],
      "matrix": [
        1.0,
        0.0,
        0.0,
        0.0,
        0.0,
        -2.8213e-07,
        -1.0,
        0.0,
        0.0,
        1.0,
        -2.8213e-07,
        0.0,
        24.37143,
        3.583176,
        1.734568,
        1.0
      ],
      "name": "GEO_Baserunner_Rachel_LOD0.008"
    },
    {
      "mesh": 6,
      "name": "MAT_Unit_C_Baserunner_Rachel_002-material"
    },
    {
      "children": [
        19
      ],
      "matrix": [
        1.0,
        0.0,
        0.0,
        0.0,
        0.0,
        -2.8213e-07,
        -1.0,
        0.0,
        0.0,
        1.0,
        -2.8213e-07,
        0.0,
        -24.17232,
        3.59615,
        22.71165,
        1.0
      ],
      "name": "GEO_Baserunner_Rachel_LOD0.009"
    },
    {
      "mesh": 7,
      "name": "MAT_Unit_C_Baserunner_Rachel_002-material"
    },
    {
      "children": [
        21
      ],
      "matrix": [
        1.0,
        0.0,
        0.0,
        0.0,
        0.0,
        -2.8213e-07,
        -1.0,
        0.0,
        0.0,
        1.0,
        -2.8213e-07,
        0.0,
        0.5424731,
        7.462584,
        -9.417058,
        1.0
      ],
      "name": "GEO_Baserunner_Rachel_LOD0.010"
    },
    {
      "mesh": 8,
      "name": "MAT_Unit_C_Baserunner_Rachel_002-material"
    },
    {
      "children": [
        23
      ],
      "matrix": [
        1.230755,
        -0.02134046,
        0.003650996,
        0.0,
        0.02138767,
        1.230647,
        -0.01654652,
        0.0,
        -0.003363252,
        0.0166074,
        1.230828,
        0.0,
        -0.3590179,
        -0.9145509000000001,
        0.7515146,
        1.0
      ],
      "name": "GEO_Baserunner_Rachel_LOD0.011"
    },
    {
      "mesh": 9,
      "name": "MAT_Unit_C_Baserunner_Rachel_004-material"
    }
  ],
  "samplers": [
    {
      "magFilter": 9729,
      "minFilter": 9987,
      "wrapS": 10497,
      "wrapT": 10497
    }
  ],
  "scene": 0,
  "scenes": [
    {
      "name": "Sketchfab_Scene",
      "nodes": [
        0
      ]
    }
  ],
  "textures": [
    {
      "sampler": 0,
      "source": 0
    }
  ]
}
